<?xml version="1.0" standalone="no"?>
<!DOCTYPE svg PUBLIC "-//W3C//DTD SVG 20010904//EN"
 "http://www.w3.org/TR/2001/REC-SVG-20010904/DTD/svg10.dtd">
<svg version="1.0" xmlns="http://www.w3.org/2000/svg"
 width="708.000000pt" height="674.000000pt" viewBox="0 0 708.000000 674.000000"
 preserveAspectRatio="xMidYMid meet">

<g transform="translate(0.000000,674.000000) scale(0.100000,-0.100000)"
fill="#000000" stroke="none">
<path d="M3315 6118 c-294 -35 -459 -70 -656 -138 -497 -172 -939 -483 -1262
-888 -212 -267 -336 -490 -462 -832 -46 -123 -79 -262 -127 -525 -16 -89 -17
-663 -1 -750 6 -33 18 -98 27 -145 21 -119 64 -280 101 -380 53 -145 76 -200
126 -305 25 -52 50 -98 125 -230 83 -147 253 -363 409 -520 544 -548 1308
-846 2075 -810 305 14 535 60 825 162 641 226 1198 717 1520 1337 212 410 317
874 302 1341 -9 252 -31 413 -90 646 -17 67 -96 300 -107 314 -4 6 -11 21 -15
35 -13 43 -86 190 -148 300 -338 597 -919 1068 -1562 1266 -44 14 -100 31
-125 39 -25 7 -83 21 -128 29 -46 9 -87 18 -91 21 -5 2 -73 12 -152 21 -170
20 -471 26 -584 12z m490 -53 c210 -17 571 -102 722 -171 17 -8 34 -14 38 -14
6 0 65 -26 165 -74 48 -23 97 -49 225 -122 17 -9 55 -33 85 -53 489 -319 876
-812 1073 -1366 188 -529 207 -1105 55 -1640 -212 -749 -739 -1374 -1448
-1717 -176 -85 -461 -183 -595 -203 -22 -4 -54 -11 -70 -16 -49 -15 -299 -40
-450 -46 -149 -6 -473 24 -585 53 -30 8 -62 14 -72 14 -9 0 -37 6 -60 14 -24
7 -83 26 -133 40 -161 48 -421 163 -570 251 -22 14 -53 32 -70 41 -30 17 -236
163 -245 174 -3 3 -41 35 -85 72 -362 298 -679 777 -820 1238 -48 154 -53 175
-60 215 -4 22 -11 54 -16 70 -24 81 -49 347 -49 535 0 188 25 454 49 535 5 16
12 48 16 70 7 41 13 63 60 215 99 322 303 690 527 947 67 78 276 281 350 341
183 148 435 300 653 393 186 79 448 156 590 174 28 3 72 11 98 17 100 22 423
28 622 13z"/>
<path d="M3315 5980 c-200 -18 -505 -85 -622 -136 -17 -8 -36 -14 -43 -14 -7
0 -26 -6 -43 -14 -18 -8 -65 -29 -106 -46 -85 -37 -271 -133 -310 -160 -14
-10 -57 -39 -96 -64 -111 -73 -114 -75 -230 -172 -214 -179 -392 -384 -556
-643 -54 -84 -199 -373 -199 -396 0 -4 -6 -21 -14 -38 -34 -78 -90 -269 -120
-407 -68 -321 -68 -739 0 -1060 29 -135 90 -342 120 -407 7 -17 14 -34 14 -38
0 -16 107 -239 159 -330 223 -393 588 -757 986 -982 100 -57 322 -163 340
-163 4 0 21 -6 38 -14 59 -26 233 -78 372 -110 277 -65 767 -69 1045 -10 163
35 281 69 450 129 77 27 276 122 355 168 56 34 247 158 255 167 3 3 31 24 63
48 129 96 312 278 430 427 43 55 84 107 90 115 97 121 259 428 325 615 88 246
117 368 152 640 12 90 12 459 0 550 -24 193 -47 309 -92 460 -192 657 -634
1215 -1230 1552 -293 166 -552 256 -898 313 -141 23 -482 34 -635 20z m620
-69 c117 -21 223 -43 270 -57 28 -8 82 -24 120 -36 661 -198 1259 -720 1559
-1361 64 -135 70 -152 109 -267 160 -477 180 -1001 56 -1475 -22 -86 -82 -268
-106 -325 -23 -55 -152 -311 -175 -350 -189 -311 -468 -608 -753 -801 -142
-97 -438 -259 -473 -259 -4 0 -19 -6 -34 -14 -34 -18 -206 -76 -224 -76 -8 0
-22 -4 -32 -10 -25 -14 -169 -46 -317 -71 -110 -19 -168 -22 -380 -22 -212 0
-270 3 -380 22 -372 63 -664 169 -960 349 -509 309 -924 826 -1101 1372 -15
47 -31 94 -35 105 -23 56 -70 291 -89 440 -13 102 -13 454 0 565 44 379 162
727 354 1043 22 37 50 82 60 100 17 27 121 168 151 204 200 238 459 458 707
601 117 68 332 172 355 172 4 0 21 7 36 15 16 8 47 19 70 25 23 6 51 15 62 20
54 25 279 75 430 95 111 16 631 13 720 -4z"/>
<path d="M3272 5835 c-74 -8 -162 -21 -196 -29 -34 -9 -69 -16 -77 -16 -34 0
-271 -75 -392 -124 -165 -67 -317 -150 -480 -263 -135 -94 -242 -184 -356
-301 -224 -230 -384 -472 -524 -792 -52 -119 -120 -359 -152 -534 -35 -196
-42 -544 -15 -731 21 -139 42 -251 56 -299 8 -28 24 -82 36 -121 70 -237 206
-511 361 -725 67 -92 69 -95 179 -220 209 -237 528 -469 813 -591 39 -17 84
-36 100 -44 56 -24 239 -83 325 -104 235 -57 307 -65 610 -64 302 1 397 11
620 71 474 126 862 357 1195 712 366 390 605 913 655 1435 13 141 13 389 0
530 -24 249 -105 547 -211 773 -357 763 -1029 1275 -1864 1422 -172 30 -462
36 -683 15z m633 -59 c339 -56 590 -145 871 -307 186 -107 348 -232 505 -389
237 -237 422 -520 545 -830 193 -490 218 -1080 67 -1585 -23 -78 -66 -197 -80
-225 -7 -14 -13 -28 -13 -32 0 -12 -82 -179 -118 -243 -262 -457 -671 -830
-1127 -1029 -60 -26 -123 -54 -140 -61 -16 -7 -70 -25 -120 -40 -49 -15 -101
-31 -115 -36 -23 -8 -125 -30 -230 -49 -25 -5 -124 -14 -222 -21 -142 -10
-209 -10 -350 0 -175 13 -200 16 -341 45 -157 32 -354 98 -507 169 -593 275
-1085 821 -1284 1422 -77 231 -94 314 -127 610 -31 280 20 666 130 992 65 193
203 453 335 633 172 234 443 485 698 644 63 39 310 166 325 166 4 1 26 9 48
20 22 11 45 19 52 20 7 0 27 6 45 14 109 48 350 101 568 127 109 12 474 3 585
-15z"/>
<path d="M2541 5146 c-202 -202 -211 -213 -194 -229 18 -16 29 -6 227 192 198
198 208 210 194 229 -14 20 -23 12 -227 -192z"/>
<path d="M4070 5095 l0 -235 25 0 25 0 0 235 0 235 -25 0 -25 0 0 -235z"/>
<path d="M4210 5095 c0 -228 1 -235 20 -235 19 0 20 7 20 235 0 228 -1 235
-20 235 -19 0 -20 -7 -20 -235z"/>
<path d="M4335 5095 l0 -235 28 0 27 0 0 235 0 235 -27 0 -28 0 0 -235z"/>
<path d="M2635 5054 c-113 -112 -205 -209 -205 -213 0 -5 7 -14 16 -22 13 -11
44 16 225 197 115 115 209 211 209 214 0 3 -9 11 -20 17 -18 12 -38 -6 -225
-193z"/>
<path d="M2725 4960 c-204 -205 -209 -210 -191 -229 18 -19 22 -16 227 190
200 201 221 228 185 242 -7 3 -104 -86 -221 -203z"/>
<path d="M2251 4856 c-10 -12 26 -52 189 -215 110 -111 206 -201 213 -201 7 0
18 5 25 12 10 10 -31 56 -190 215 -112 112 -208 203 -214 203 -6 0 -17 -6 -23
-14z"/>
<path d="M2159 4764 c-11 -13 15 -43 194 -222 197 -197 207 -205 225 -189 18
16 10 25 -188 222 -113 113 -208 205 -212 205 -3 0 -11 -7 -19 -16z"/>
<path d="M3370 4750 l0 -30 860 0 860 0 0 30 0 30 -860 0 -860 0 0 -30z"/>
<path d="M2067 4672 c-15 -17 -4 -30 186 -220 111 -111 207 -202 213 -202 7 0
17 7 24 15 10 12 -23 49 -194 220 -114 113 -208 205 -210 205 -1 0 -10 -8 -19
-18z"/>
<path d="M3372 4620 c3 -20 8 -20 851 -20 466 0 852 0 857 0 6 0 10 9 10 20 0
20 -7 20 -861 20 -857 0 -860 0 -857 -20z"/>
<path d="M3372 4488 l3 -23 835 -3 c459 -1 845 0 858 3 13 3 22 13 22 25 0 20
-9 20 -861 20 l-860 0 3 -22z"/>
<path d="M2338 4005 c-390 -390 -404 -406 -386 -422 18 -16 35 -1 424 388 390
390 404 406 386 422 -18 17 -34 2 -424 -388z"/>
<path d="M4070 4195 l0 -185 25 0 25 0 0 185 0 185 -25 0 -25 0 0 -185z"/>
<path d="M4210 4195 c0 -178 1 -185 20 -185 19 0 20 7 20 185 0 178 -1 185
-20 185 -19 0 -20 -7 -20 -185z"/>
<path d="M4338 4195 l-3 -185 28 0 27 0 0 185 0 185 -25 0 -24 0 -3 -185z"/>
<path d="M2431 3916 c-351 -351 -403 -407 -392 -420 8 -9 18 -16 23 -16 5 0
190 180 410 400 392 392 400 401 383 420 -10 11 -19 20 -19 20 -1 0 -183 -182
-405 -404z"/>
<path d="M2522 3817 c-384 -384 -402 -404 -385 -420 18 -15 38 3 423 388 350
350 402 406 391 419 -8 9 -16 16 -20 16 -3 0 -187 -181 -409 -403z"/>
<path d="M3590 3902 l0 -32 640 0 640 0 0 25 0 25 -167 0 c-93 0 -381 3 -640
7 l-473 6 0 -31z"/>
<path d="M3590 3770 l0 -30 640 0 640 0 0 30 0 30 -640 0 -640 0 0 -30z"/>
<path d="M3590 3635 l0 -25 640 0 640 0 0 25 0 25 -640 0 -640 0 0 -25z"/>
<path d="M2507 3615 l-28 -25 400 0 401 0 0 25 0 25 -372 0 -373 -1 -28 -24z"/>
<path d="M2377 3485 l-28 -25 466 -2 465 -3 0 28 0 27 -437 0 -438 -1 -28 -24z"/>
<path d="M3650 3080 l0 -340 25 0 25 0 0 340 0 340 -25 0 -25 0 0 -340z"/>
<path d="M3785 3080 l0 -340 28 0 27 0 0 340 0 340 -27 0 -28 0 0 -340z"/>
<path d="M3910 3080 l0 -340 30 0 30 0 0 340 0 340 -30 0 -30 0 0 -340z"/>
<path d="M4050 3393 l0 -28 378 0 377 0 3 28 3 27 -380 0 -381 0 0 -27z"/>
<path d="M2249 3361 c-9 -10 -19 -23 -23 -29 -5 -9 125 -12 523 -12 l531 0 0
30 0 30 -507 -1 c-472 -1 -509 -2 -524 -18z"/>
<path d="M4050 3258 l0 -23 380 3 c371 2 380 3 380 22 0 20 -8 20 -380 20
l-380 0 0 -22z"/>
<path d="M2593 3243 l-23 -4 0 -445 0 -444 25 0 25 0 0 450 c0 248 -1 449 -2
449 -2 -1 -13 -4 -25 -6z"/>
<path d="M2700 2798 l0 -448 30 0 30 0 0 444 0 444 -30 4 -30 5 0 -449z"/>
<path d="M2835 2795 l0 -445 28 0 27 0 0 445 0 445 -27 0 -28 0 0 -445z"/>
<path d="M4050 3125 l0 -25 378 2 377 3 3 23 3 22 -380 0 -381 0 0 -25z"/>
<path d="M2251 2834 c-196 -197 -231 -237 -221 -249 7 -8 18 -15 24 -15 6 0
107 96 224 213 206 206 213 215 210 249 l-3 36 -234 -234z"/>
<path d="M2970 3033 c0 -36 11 -49 213 -251 117 -116 217 -212 223 -212 7 0
17 6 23 14 9 10 -38 62 -224 250 l-235 236 0 -37z"/>
<path d="M4490 2686 l0 -336 28 0 27 0 -2 332 -2 333 -26 3 -25 3 0 -335z"/>
<path d="M4630 2685 c0 -328 0 -335 20 -335 20 0 20 7 20 335 0 328 0 335 -20
335 -20 0 -20 -7 -20 -335z"/>
<path d="M4760 2685 l0 -335 25 0 25 0 0 335 0 335 -25 0 -25 0 0 -335z"/>
<path d="M2300 2695 c-155 -156 -183 -188 -174 -202 6 -9 15 -17 20 -18 5 -1
85 76 177 170 154 158 168 175 165 204 -3 31 -7 28 -188 -154z"/>
<path d="M2970 2846 c0 -37 9 -47 171 -208 168 -167 171 -170 190 -152 18 19
15 23 -171 209 l-190 190 0 -39z"/>
<path d="M2345 2550 c-133 -133 -139 -141 -122 -157 16 -17 24 -11 143 108
114 114 125 128 122 158 -3 31 -4 31 -143 -109z"/>
<path d="M2970 2660 c0 -32 12 -48 125 -160 119 -118 126 -124 142 -107 17 16
11 24 -125 160 l-142 142 0 -35z"/>
<path d="M3652 2638 l3 -23 378 -3 377 -2 0 25 0 25 -381 0 -380 0 3 -22z"/>
<path d="M3652 2508 l3 -23 378 -3 377 -2 0 25 0 25 -381 0 -380 0 3 -22z"/>
<path d="M3657 2393 c-4 -3 -7 -15 -7 -25 0 -17 18 -18 380 -18 l380 0 0 25 0
25 -373 0 c-206 0 -377 -3 -380 -7z"/>
<path d="M3940 2068 c0 -51 2 -58 20 -58 18 0 20 7 20 58 0 51 -2 58 -20 58
-18 0 -20 -7 -20 -58z"/>
<path d="M2880 1797 c5 -140 7 -156 29 -188 39 -57 69 -73 143 -77 55 -4 73 0
101 17 19 12 37 21 41 21 3 0 6 -29 6 -65 l0 -65 -81 0 c-124 0 -159 -27 -159
-125 0 -51 20 -80 66 -95 91 -31 191 26 214 121 12 48 15 52 66 74 57 25 89
64 100 123 7 36 19 40 47 15 13 -13 40 -19 90 -21 73 -3 78 -2 149 50 13 10
22 6 54 -21 35 -31 41 -33 100 -29 48 3 69 9 87 26 29 27 34 27 56 0 14 -17
32 -23 80 -26 52 -4 66 -1 96 19 62 43 87 140 38 147 -20 3 -23 -1 -23 -30 0
-74 -85 -122 -146 -82 -47 31 -54 61 -54 219 0 138 -1 145 -20 145 -19 0 -20
-7 -20 -156 l0 -157 -36 -33 c-48 -45 -85 -45 -130 0 l-34 34 0 156 c0 155 0
156 -22 156 -23 0 -23 -2 -23 -133 0 -149 -11 -182 -75 -224 -40 -28 -79 -29
-128 -4 -63 33 -72 59 -72 220 l0 141 -27 0 -28 0 3 -152 c5 -223 -2 -274 -43
-315 -18 -18 -42 -33 -54 -33 -21 0 -21 3 -21 250 l0 250 -25 0 -25 0 0 -144
c0 -141 -1 -145 -26 -176 -67 -79 -161 -78 -226 5 -21 27 -23 41 -26 172 -4
139 -5 143 -25 143 -22 0 -22 -1 -17 -153z m320 -432 c0 -54 -99 -126 -148
-108 -51 19 -67 79 -30 113 18 17 35 20 100 20 76 0 78 -1 78 -25z"/>
</g>
</svg>
